<?xml version="1.0" encoding="UTF-8"?>
<svg width="752pt" height="752pt" version="1.1" viewBox="0 0 752 752" xmlns="http://www.w3.org/2000/svg">
 <path d="m376 178.68c-76.957 0-138.12 61.172-138.12 138.13 0 76.957 138.13 256.52 138.13 256.52s138.13-179.57 138.13-256.52c-0.003906-76.957-61.176-138.13-138.13-138.13zm73.012 140.1c-11.84 23.68-33.547 53.277-73.012 76.957-39.465-23.68-61.172-53.277-73.012-76.957-9.8633-21.707-5.918-47.359 7.8945-65.117 17.758-21.707 47.359-21.707 65.117 0 17.758-19.734 47.359-19.734 65.117 0 13.812 17.758 17.762 43.41 7.8945 65.117z" fill="#ff001b"/>
</svg>
